<svg version="1" xmlns="http://www.w3.org/2000/svg" width="682.667" height="682.667" viewBox="0 0 512.000000 512.000000"><path d="M233 65.1c-35.7 4.6-70.5 19.4-98 41.6-10 8.1-25.3 24-32.8 34.1C68.9 185.7 56.7 241.1 68 295.9c11.9 56.9 50.8 106.9 103.5 132.6 53.3 26.1 115.7 26.1 169 0 20.4-9.9 37.1-22.2 53.6-39.2 35-36.1 53.9-82.9 53.9-133.3 0-65.3-32.5-125.2-87.5-161.2C337.1 79.4 307.3 68.7 278 65c-9.7-1.2-35.5-1.1-45 .1zm42.8 130.5c19.8 6.6 33.9 20.7 40.8 40.9 2.4 6.9 2.8 9.6 2.8 19.5s-.4 12.6-2.8 19.5c-7 20.2-20.9 34.1-41.1 41.1-6.9 2.4-9.6 2.8-19.5 2.8s-12.6-.4-19.5-2.8c-20.2-7-34.1-20.9-41.1-41.1-2.4-6.9-2.8-9.6-2.8-19.5s.4-12.6 2.8-19.5c7.9-23 26.6-39.3 49.9-43.5 8.4-1.5 21.8-.4 30.5 2.6z"/></svg>