<?xml version="1.0" standalone="no"?>
<!DOCTYPE svg PUBLIC "-//W3C//DTD SVG 20010904//EN"
 "http://www.w3.org/TR/2001/REC-SVG-20010904/DTD/svg10.dtd">
<svg version="1.0" xmlns="http://www.w3.org/2000/svg"
 width="512.000000pt" height="512.000000pt" viewBox="0 0 512.000000 512.000000"
 preserveAspectRatio="xMidYMid meet">
<metadata>
Created by potrace 1.11, written by Peter Selinger 2001-2013
</metadata>
<g transform="translate(0.000000,512.000000) scale(0.100000,-0.100000)"
fill="#000000" stroke="none">
<path d="M2365 4474 c-380 -54 -645 -154 -925 -352 -124 -87 -355 -318 -442
-442 -170 -240 -281 -507 -335 -800 -25 -134 -25 -506 0 -640 54 -293 165
-560 335 -800 87 -124 318 -355 442 -442 240 -170 507 -281 800 -335 134 -25
506 -25 640 0 293 54 560 165 800 335 124 87 355 318 442 442 170 240 281 507
335 800 25 134 25 506 0 640 -54 293 -165 560 -335 800 -87 124 -318 355 -442
442 -239 169 -509 282 -795 334 -86 16 -448 28 -520 18z m393 -1310 c198 -66
339 -207 408 -409 24 -69 28 -96 28 -195 0 -99 -4 -126 -28 -195 -70 -202
-209 -341 -411 -411 -69 -24 -96 -28 -195 -28 -99 0 -126 4 -195 28 -202 70
-341 209 -411 411 -24 69 -28 96 -28 195 0 99 4 126 28 195 79 230 266 393
499 435 84 15 218 4 305 -26z"/>
</g>
</svg>
